<?xml version="1.0" encoding="iso-8859-1"?>
<!-- Generator: Adobe Illustrator 25.3.1, SVG Export Plug-In . SVG Version: 6.00 Build 0)  -->
<svg version="1.1" id="Layer_1" xmlns="http://www.w3.org/2000/svg" xmlns:xlink="http://www.w3.org/1999/xlink" x="0px" y="0px"
	 viewBox="0 0 48 48" style="enable-background:new 0 0 48 48;" xml:space="preserve">
<linearGradient id="SVGID_1_" gradientUnits="userSpaceOnUse" x1="-7.0177" y1="9.3079" x2="39.3874" y2="33.5326">
	<stop  offset="0" style="stop-color:#FAC017"/>
	<stop  offset="0.9086" style="stop-color:#E1AB2D"/>
</linearGradient>
<path style="fill:url(#SVGID_1_);" d="M44.5,41h-41C2.119,41,1,39.881,1,38.5v-31C1,6.119,2.119,5,3.5,5h11.597
	c1.519,0,2.955,0.69,3.904,1.877L21.5,10h23c1.381,0,2.5,1.119,2.5,2.5v26C47,39.881,45.881,41,44.5,41z"/>
<linearGradient id="SVGID_2_" gradientUnits="userSpaceOnUse" x1="5.8513" y1="9.2536" x2="18.6009" y2="27.3896">
	<stop  offset="0" style="stop-color:#FBFEF3"/>
	<stop  offset="0.9086" style="stop-color:#E2E4E3"/>
</linearGradient>
<path style="fill:url(#SVGID_2_);" d="M2,25h20V11H4c-1.105,0-2,0.895-2,2V25z"/>
<linearGradient id="SVGID_3_" gradientUnits="userSpaceOnUse" x1="2" y1="19" x2="22" y2="19">
	<stop  offset="0" style="stop-color:#FBFEF3"/>
	<stop  offset="0.9086" style="stop-color:#E2E4E3"/>
</linearGradient>
<path style="fill:url(#SVGID_3_);" d="M2,26h20V12H4c-1.105,0-2,0.895-2,2V26z"/>
<linearGradient id="SVGID_4_" gradientUnits="userSpaceOnUse" x1="16.8649" y1="39.287" x2="44.9654" y2="39.792">
	<stop  offset="0" style="stop-color:#E3A917"/>
	<stop  offset="0.4637" style="stop-color:#D79C1E"/>
</linearGradient>
<path style="fill:url(#SVGID_4_);" d="M1,37.875V38.5C1,39.881,2.119,41,3.5,41h41c1.381,0,2.5-1.119,2.5-2.5v-0.625H1z"/>
<linearGradient id="SVGID_6_" gradientUnits="userSpaceOnUse" x1="-4.8793" y1="12.7636" x2="35.9675" y2="30.778">
	<stop  offset="0.34" style="stop-color:#FFEFB2"/>
	<stop  offset="0.4855" style="stop-color:#FFEDAD"/>
	<stop  offset="0.6521" style="stop-color:#FFE99F"/>
	<stop  offset="0.8284" style="stop-color:#FEE289"/>
	<stop  offset="1" style="stop-color:#FED86B"/>
</linearGradient>
<path style="fill:url(#SVGID_6_);" d="M44.5,11h-23l-1.237,0.824C19.114,12.591,17.763,13,16.381,13H3.5C2.119,13,1,14.119,1,15.5
	v22C1,38.881,2.119,40,3.5,40h41c1.381,0,2.5-1.119,2.5-2.5v-24C47,12.119,45.881,11,44.5,11z"/>
<radialGradient id="SVGID_7_" cx="37.8363" cy="49.3167" r="53.8746" gradientUnits="userSpaceOnUse">
	<stop  offset="0.199" style="stop-color:#FEC832"/>
	<stop  offset="0.6006" style="stop-color:#FCD667"/>
	<stop  offset="0.6796" style="stop-color:#FDDA75"/>
	<stop  offset="0.8862" style="stop-color:#FEE496"/>
	<stop  offset="1" style="stop-color:#FFE8A2"/>
</radialGradient>
<path style="fill:url(#SVGID_7_);" d="M44.5,40h-41C2.119,40,1,38.881,1,37.5v-21C1,15.119,2.119,14,3.5,14h13.256
	c1.382,0,2.733-0.409,3.883-1.176L21.875,12H44.5c1.381,0,2.5,1.119,2.5,2.5v23C47,38.881,45.881,40,44.5,40z"/>
</svg>